<svg id="Camada_1" data-name="Camada 1" xmlns="http://www.w3.org/2000/svg" viewBox="0 0 126 68"><defs><style>.cls-1{fill:#c8db50;}.cls-2{fill:#fff;}.cls-3{fill:none;}</style></defs><title>logoTextoBranco</title><path class="cls-1" d="M49.27,26.78c1,5.14-3.22,11.62-8.71,13.61-2.47.89-4.59.6-6.05-.48a5.81,5.81,0,0,1-2.13-4.86c0-4,2.92-8.78,6.87-11.15a8.54,8.54,0,0,1,6.12-1.33,5,5,0,0,1,3.9,4.21"/><path class="cls-1" d="M95.39,8.88A11.59,11.59,0,0,0,90.32,3a15.46,15.46,0,0,0-7.12-1.9,23.31,23.31,0,0,0-7.49,1A31.15,31.15,0,0,0,68.6,5.32a34.53,34.53,0,0,0-5.94,4.52A32.77,32.77,0,0,0,58.22,15a24.49,24.49,0,0,0-4.48,11.53,14.78,14.78,0,0,0,.57,5.76,11.83,11.83,0,0,0,2.88,4.8,12.79,12.79,0,0,0,5.56,3.2,19.2,19.2,0,0,0,8.6.29,29.58,29.58,0,0,0,10.35-4,34.41,34.41,0,0,0,9-8.08,26.76,26.76,0,0,0,5.09-10.17,15.67,15.67,0,0,0-.43-9.4M71.66,29c-2.88.93-5.35.6-7-.58a6.07,6.07,0,0,1-2.43-5.27c.07-4.34,3.51-9.45,8.13-12A10.63,10.63,0,0,1,77.48,9.8,5.6,5.6,0,0,1,82,14.39C83.06,20,78.08,26.91,71.66,29"/><path class="cls-2" d="M124.93,56.93c0-2.3-.52-3.8-1.53-4.81a5.58,5.58,0,0,0-4-1.64,6.36,6.36,0,0,0-1.91.29,5.9,5.9,0,0,0-1.55.82l0,0,0,0-.08,0h-.15l-.06,0a.27.27,0,0,1-.11-.1.23.23,0,0,1,0-.14V44a.27.27,0,0,0-.28-.28h-2.6a.27.27,0,0,0-.28.28V66.23a.28.28,0,0,0,.08.2.27.27,0,0,0,.19.08h2.61a.27.27,0,0,0,.28-.28v-9a4.05,4.05,0,0,1,.93-3.07,3.44,3.44,0,0,1,2.33-.91,3.14,3.14,0,0,1,2.23.92c.57.57.81,1.45.81,3.08v8.93a.27.27,0,0,0,.28.28h2.6a.27.27,0,0,0,.28-.28ZM88.12,50.48a6.31,6.31,0,0,0-4.46,1.85,7.11,7.11,0,0,0-1.85,5.31v2.08A7.11,7.11,0,0,0,83.66,65a6.27,6.27,0,0,0,4.45,1.85h0A6.51,6.51,0,0,0,94,63.18a.43.43,0,0,0,0-.11A.21.21,0,0,0,94,63l-.06-.09-.09-.06-1.19-.51-1.19-.5-.11,0-.11,0a.31.31,0,0,0-.09.07.18.18,0,0,0-.06.09,3.13,3.13,0,0,1-1.15,1.52,3.21,3.21,0,0,1-1.82.59,3.17,3.17,0,0,1-2.22-.93A4,4,0,0,1,85,60.06v-.51a.36.36,0,0,1,0-.1.24.24,0,0,1,.06-.09l.09-.06.1,0h8.91a.2.2,0,0,0,.11,0,.24.24,0,0,0,.09-.06.15.15,0,0,0,.06-.09.36.36,0,0,0,0-.1V57.64a7.11,7.11,0,0,0-1.85-5.31,6.3,6.3,0,0,0-4.46-1.85m3.1,6.05a.48.48,0,0,1-.08.19.24.24,0,0,1-.09.06.22.22,0,0,1-.11,0H85.3a.16.16,0,0,1-.1,0,.28.28,0,0,1-.15-.15.18.18,0,0,1,0-.1v-.08a3.32,3.32,0,0,1,.87-2.23,3.15,3.15,0,0,1,4.45,0,3.42,3.42,0,0,1,.87,2.23ZM12.05,52.12A5.62,5.62,0,0,0,6.3,50.77a5.81,5.81,0,0,0-1.56.82l0,0a.05.05,0,0,1,0,0l-.08,0H4.44l-.06,0a.35.35,0,0,1-.11-.1.33.33,0,0,1,0-.14V44A.27.27,0,0,0,4,43.76H1.35a.27.27,0,0,0-.28.28V59.72A7.15,7.15,0,0,0,2.92,65a6.33,6.33,0,0,0,8.92,0,7.15,7.15,0,0,0,1.85-5.32V56.93a6.43,6.43,0,0,0-1.64-4.81m-1.52,7.94a4.07,4.07,0,0,1-.92,3.08,3.14,3.14,0,0,1-4.46,0,4.07,4.07,0,0,1-.92-3.08V57.28a4.14,4.14,0,0,1,.93-3.07,3.16,3.16,0,0,1,4.45,0,4.07,4.07,0,0,1,.92,3.08Zm12.32-9.58a6.31,6.31,0,0,0-4.46,1.85,7.11,7.11,0,0,0-1.85,5.31v2.08A7.11,7.11,0,0,0,18.39,65a6.27,6.27,0,0,0,4.45,1.85h0a6.51,6.51,0,0,0,5.86-3.7.45.45,0,0,0,0-.11.43.43,0,0,0,0-.11.47.47,0,0,0-.06-.09l-.09-.06-1.19-.51-1.19-.5-.11,0-.11,0-.09.07-.06.09a3.11,3.11,0,0,1-1.14,1.52,3.24,3.24,0,0,1-1.83.59,3.19,3.19,0,0,1-2.22-.93,4.06,4.06,0,0,1-.93-3.08v-.51a.36.36,0,0,1,0-.1l.06-.09.09-.06.11,0h8.91a.18.18,0,0,0,.1,0,.28.28,0,0,0,.15-.15.18.18,0,0,0,0-.1V57.64a7.11,7.11,0,0,0-1.85-5.31,6.3,6.3,0,0,0-4.46-1.85M26,56.53a.36.36,0,0,1,0,.1.35.35,0,0,1-.06.09l-.09.06a.22.22,0,0,1-.11,0H20a.18.18,0,0,1-.1,0,.28.28,0,0,1-.15-.15.36.36,0,0,1,0-.1v-.08a3.37,3.37,0,0,1,.87-2.23,3.15,3.15,0,0,1,4.45,0A3.37,3.37,0,0,1,26,56.45ZM79.4,50.86H76.71a.27.27,0,0,1-.19-.08.3.3,0,0,1-.08-.2v-.11h0V46.88a.28.28,0,0,0-.28-.28H73.55a.27.27,0,0,0-.27.28v3.7a.3.3,0,0,1-.08.2.32.32,0,0,1-.2.08H71.27a.28.28,0,0,0-.28.27v1.93a.28.28,0,0,0,.28.28H73a.32.32,0,0,1,.2.08.28.28,0,0,1,.08.2v8.66a4.65,4.65,0,0,0,4.89,4.6H79.4a.28.28,0,0,0,.28-.28V64.34a.28.28,0,0,0-.28-.28H78.17c-1,0-1.73-.5-1.73-1.45v-8.9h0v-.1a.28.28,0,0,1,.08-.2.27.27,0,0,1,.19-.08H79.4a.27.27,0,0,0,.28-.28V51.13a.27.27,0,0,0-.28-.27m-15.91-.39a9.7,9.7,0,0,0-5.9,2,.32.32,0,0,0-.1.19.24.24,0,0,0,.06.2l1.66,2a.28.28,0,0,0,.38,0,6.37,6.37,0,0,1,3.9-1.31,2.21,2.21,0,0,1,2.21,2.2v.85a.27.27,0,0,1-.27.27h-1.8a12.47,12.47,0,0,0-3.36.4,5.65,5.65,0,0,0-3.18,2.06,4.74,4.74,0,0,0,3.85,7.48c.34,0,.58,0,.9,0l.36,0a6.06,6.06,0,0,0,3-1.37h0a.27.27,0,0,1,.17-.06.28.28,0,0,1,.27.27v.52a.25.25,0,0,0,0,.13.26.26,0,0,0,.24.15h2.61a.27.27,0,0,0,.27-.28V55.83a5.38,5.38,0,0,0-5.37-5.36M65.7,61a3,3,0,0,1-.87,2.15,3.82,3.82,0,0,1-2.28,1,8.66,8.66,0,0,1-1.61,0,1.69,1.69,0,0,1-1.16-.68,1.89,1.89,0,0,1-.41-1.17,2.23,2.23,0,0,1,.56-1.53,3.27,3.27,0,0,1,1.27-.85,7.26,7.26,0,0,1,2.46-.41h1.77a.27.27,0,0,1,.19.08.3.3,0,0,1,.08.2Zm43.69,1.91-.09-.06-2.38-1-.11,0-.11,0-.09.07-.06.09a3.11,3.11,0,0,1-1.14,1.52,3.24,3.24,0,0,1-1.83.59,3.19,3.19,0,0,1-2.22-.93,4.06,4.06,0,0,1-.93-3.08V57.3a4.09,4.09,0,0,1,.93-3.08,3.14,3.14,0,0,1,5.19,1.18l.06.1.09.06a.22.22,0,0,0,.11,0,.2.2,0,0,0,.11,0l1.19-.5,1.19-.5.09-.07a.35.35,0,0,0,.06-.09.36.36,0,0,0,0-.11.38.38,0,0,0,0-.1,6.5,6.5,0,0,0-5.86-3.71h0a6.27,6.27,0,0,0-4.45,1.85,7.14,7.14,0,0,0-1.85,5.31v2.08A7.12,7.12,0,0,0,99.12,65a6.27,6.27,0,0,0,4.45,1.85h0a6.39,6.39,0,0,0,3.46-1,6.5,6.5,0,0,0,2.39-2.69.45.45,0,0,0,0-.11.43.43,0,0,0,0-.11l-.06-.09M48.49,50.48A5.57,5.57,0,0,0,44,52.76a.25.25,0,0,1-.1.08l-.12,0-.12,0a.39.39,0,0,1-.1-.08A5.54,5.54,0,0,0,39,50.48h-.34a5.68,5.68,0,0,0-3.07,1.38h0a.27.27,0,0,1-.17.06.27.27,0,0,1-.12,0,.27.27,0,0,1-.16-.25v-.52a.18.18,0,0,0,0-.1.15.15,0,0,0-.06-.09.22.22,0,0,0-.14-.08H32.28a.27.27,0,0,0-.27.27v15.1a.28.28,0,0,0,.08.2.26.26,0,0,0,.19.08h2.61a.27.27,0,0,0,.19-.08.28.28,0,0,0,.08-.2V57.3a4.1,4.1,0,0,1,.93-3.08,3.15,3.15,0,0,1,4.45,0,4.1,4.1,0,0,1,.93,3.08v8.93a.28.28,0,0,0,.08.2.27.27,0,0,0,.19.08h2.61a.26.26,0,0,0,.19-.08.29.29,0,0,0,.09-.2V57.3a4.07,4.07,0,0,1,.92-3.08,3.15,3.15,0,0,1,4.45,0,4.1,4.1,0,0,1,.93,3.08v8.93a.28.28,0,0,0,.08.2.27.27,0,0,0,.19.08h2.61a.26.26,0,0,0,.19-.08.29.29,0,0,0,.09-.2v-9.3a6.43,6.43,0,0,0-1.65-4.81,5.58,5.58,0,0,0-3.95-1.64"/><rect class="cls-3" width="126" height="68"/></svg>