<svg id="Camada_1" data-name="Camada 1" xmlns="http://www.w3.org/2000/svg" viewBox="0 0 126 31.22"><defs><style>.cls-1{fill:none;}.cls-2{fill:#c8db50;}.cls-3{fill:#fff;}</style></defs><title>logoTextoBrancoHorizontal</title><rect class="cls-1" width="126" height="31.22"/><path class="cls-2" d="M91.07,19.89c.74,3.81-2.38,8.62-6.46,10.1a4.68,4.68,0,0,1-4.48-.36A4.29,4.29,0,0,1,78.55,26c0-3,2.16-6.52,5.09-8.27a6.31,6.31,0,0,1,4.54-1,3.73,3.73,0,0,1,2.89,3.12"/><path class="cls-2" d="M125.27,6.61a8.61,8.61,0,0,0-3.76-4.34A11.36,11.36,0,0,0,116.24.86a17.28,17.28,0,0,0-5.56.75A23.34,23.34,0,0,0,105.41,4,25.49,25.49,0,0,0,101,7.33a24.41,24.41,0,0,0-3.29,3.82,18.1,18.1,0,0,0-3.32,8.55A10.79,10.79,0,0,0,94.81,24,8.7,8.7,0,0,0,97,27.53a9.37,9.37,0,0,0,4.12,2.37,14.26,14.26,0,0,0,6.38.22,22.05,22.05,0,0,0,7.68-3,25.4,25.4,0,0,0,6.69-6,19.75,19.75,0,0,0,3.77-7.54,11.49,11.49,0,0,0-.32-7M107.68,21.53a5.8,5.8,0,0,1-5.22-.42,4.5,4.5,0,0,1-1.8-3.91c0-3.22,2.6-7,6-8.88a7.85,7.85,0,0,1,5.31-1,4.14,4.14,0,0,1,3.32,3.4c.81,4.12-2.88,9.28-7.64,10.83"/><path class="cls-3" d="M77,15a4,4,0,0,0-1-3,3.47,3.47,0,0,0-2.46-1,4.23,4.23,0,0,0-1.19.18,3.68,3.68,0,0,0-1,.51l0,0h0a.05.05,0,0,1-.05,0h-.09l0,0a.13.13,0,0,1-.07-.06.29.29,0,0,1,0-.09V7a.17.17,0,0,0,0-.12.18.18,0,0,0-.12-.05H69.31a.17.17,0,0,0-.17.17V20.81a.15.15,0,0,0,0,.12.17.17,0,0,0,.12.05h1.62a.17.17,0,0,0,.17-.17V15.24a2.52,2.52,0,0,1,.58-1.9,2.12,2.12,0,0,1,1.45-.57,1.92,1.92,0,0,1,1.38.58,2.56,2.56,0,0,1,.5,1.91v5.55a.17.17,0,0,0,.17.17H76.8a.21.21,0,0,0,.13-.05.18.18,0,0,0,0-.12ZM54.11,11a3.91,3.91,0,0,0-2.77,1.15,4.42,4.42,0,0,0-1.15,3.3v1.29a4.46,4.46,0,0,0,1.14,3.3,3.91,3.91,0,0,0,2.77,1.15h0a4,4,0,0,0,2.15-.62,4.12,4.12,0,0,0,1.49-1.68.15.15,0,0,0,0-.07.13.13,0,0,0,0-.06.09.09,0,0,0,0-.06.1.1,0,0,0-.05,0l-.74-.31-.74-.32h-.07l-.06,0-.06,0a.09.09,0,0,0,0,.06,2,2,0,0,1-3.22.73A2.53,2.53,0,0,1,52.15,17v-.31a.17.17,0,0,1,0-.07l0-.05,0,0h5.67l.06,0s0,0,0-.06a.14.14,0,0,0,0-.06v-.85a4.42,4.42,0,0,0-1.15-3.3A3.91,3.91,0,0,0,54.11,11M56,14.78a.13.13,0,0,1,0,.06l0,.06-.06,0H52.29l-.06,0,0-.06a.14.14,0,0,1,0-.06v0a2.14,2.14,0,0,1,.54-1.38,2,2,0,0,1,1.39-.58,1.92,1.92,0,0,1,1.38.58A2.11,2.11,0,0,1,56,14.73ZM6.85,12a3.47,3.47,0,0,0-2.46-1,3.7,3.7,0,0,0-1.12.18,3.68,3.68,0,0,0-1,.51l0,0h0a.05.05,0,0,1,0,0H2.12l0,0A.13.13,0,0,1,2,11.7a.29.29,0,0,1,0-.09V7a.17.17,0,0,0-.05-.12.18.18,0,0,0-.12-.05H.2a.21.21,0,0,0-.13.05A.17.17,0,0,0,0,7v9.74a4.43,4.43,0,0,0,1.15,3.31,3.95,3.95,0,0,0,5.55,0,4.43,4.43,0,0,0,1.14-3.31V15a4,4,0,0,0-1-3M5.9,17a2.56,2.56,0,0,1-.57,1.92,2,2,0,0,1-1.39.57,2,2,0,0,1-1.38-.57A2.56,2.56,0,0,1,2,17V15.24a2.52,2.52,0,0,1,.58-1.9,1.94,1.94,0,0,1,2.76,0,2.53,2.53,0,0,1,.57,1.91ZM13.56,11a3.91,3.91,0,0,0-2.77,1.15,4.42,4.42,0,0,0-1.15,3.3v1.29a4.46,4.46,0,0,0,1.14,3.3,3.91,3.91,0,0,0,2.77,1.15h0a4,4,0,0,0,2.15-.62,4.12,4.12,0,0,0,1.49-1.68.15.15,0,0,0,0-.07.13.13,0,0,0,0-.06.09.09,0,0,0,0-.06.1.1,0,0,0-.05,0l-.74-.31-.74-.32h-.07l-.07,0a.1.1,0,0,0-.05,0,.09.09,0,0,0,0,.06,2,2,0,0,1-1.84,1.3,2,2,0,0,1-1.39-.57A2.58,2.58,0,0,1,11.6,17v-.31a.17.17,0,0,1,0-.07l0-.05a.1.1,0,0,1,0,0h5.67l.06,0s0,0,0-.06a.14.14,0,0,0,0-.06v-.85a4.42,4.42,0,0,0-1.15-3.3A3.91,3.91,0,0,0,13.56,11m1.92,3.76a.13.13,0,0,1,0,.06l0,.06-.06,0H11.74l-.06,0,0-.06a.14.14,0,0,1,0-.06v0a2.09,2.09,0,0,1,.54-1.38,2,2,0,0,1,1.39-.58,1.92,1.92,0,0,1,1.38.58,2.11,2.11,0,0,1,.54,1.38Zm33.21-3.52H47a.17.17,0,0,1-.12,0,.21.21,0,0,1,0-.12V11h0V8.78a.18.18,0,0,0-.17-.17H45.06a.18.18,0,0,0-.18.17v2.31a.16.16,0,0,1-.05.12.17.17,0,0,1-.12,0H43.64a.16.16,0,0,0-.17.17v1.2a.17.17,0,0,0,.17.17h1.07a.17.17,0,0,1,.12,0,.13.13,0,0,1,.05.12v5.38a2.9,2.9,0,0,0,3,2.86h.77a.16.16,0,0,0,.17-.17V19.63a.17.17,0,0,0-.17-.17h-.77c-.59,0-1.07-.3-1.07-.9V13h0V13A.17.17,0,0,1,47,12.8h1.67a.17.17,0,0,0,.17-.17v-1.2a.16.16,0,0,0-.17-.17M38.8,11a6,6,0,0,0-3.66,1.25.17.17,0,0,0-.06.12.14.14,0,0,0,0,.12l1,1.25a.15.15,0,0,0,.23,0A4,4,0,0,1,38.81,13a1.37,1.37,0,0,1,1.37,1.37v.52a.17.17,0,0,1,0,.12A.15.15,0,0,1,40,15H38.89a7.87,7.87,0,0,0-2.09.25,3.47,3.47,0,0,0-2,1.28,2.84,2.84,0,0,0-.54,1.74,2.92,2.92,0,0,0,2.93,2.9H38a3.82,3.82,0,0,0,1.89-.85h0a.2.2,0,0,1,.11,0,.1.1,0,0,1,.07,0,.16.16,0,0,1,.1.15v.32a.19.19,0,0,0,0,.08.16.16,0,0,0,.15.09H42a.16.16,0,0,0,.17-.17V14.35A3.34,3.34,0,0,0,38.8,11m1.38,6.51a1.9,1.9,0,0,1-.54,1.34,2.34,2.34,0,0,1-1.42.59,5.57,5.57,0,0,1-1,0A1,1,0,0,1,36.5,19a1.15,1.15,0,0,1-.25-.73,1.36,1.36,0,0,1,.34-.95,2.05,2.05,0,0,1,.79-.52,4.4,4.4,0,0,1,1.53-.26H40a.18.18,0,0,1,.12.05.21.21,0,0,1,0,.12Zm27.14,1.19a.13.13,0,0,0-.06,0l-1.47-.63h-.07l-.07,0a.1.1,0,0,0-.05,0,.09.09,0,0,0,0,.06,2,2,0,0,1-.71.94,2,2,0,0,1-2.52-.21A2.58,2.58,0,0,1,61.76,17V15.26a2.53,2.53,0,0,1,.57-1.91,2,2,0,0,1,1.38-.58,2,2,0,0,1,1.85,1.31l0,.06.05,0h.14l.74-.31.74-.32s0,0,0,0a.21.21,0,0,0,0-.06.17.17,0,0,0,0-.07.19.19,0,0,0,0-.07A4,4,0,0,0,63.71,11h0a3.91,3.91,0,0,0-2.77,1.15,4.42,4.42,0,0,0-1.15,3.3v1.29a4.42,4.42,0,0,0,1.15,3.3,3.9,3.9,0,0,0,2.76,1.15h0a4,4,0,0,0,3.63-2.3.14.14,0,0,0,0-.07.13.13,0,0,0,0-.06.09.09,0,0,0,0-.06M29.48,11a3.4,3.4,0,0,0-1.59.39,3.44,3.44,0,0,0-1.21,1l-.06.05-.08,0-.07,0-.06-.05a3.54,3.54,0,0,0-1.21-1A3.44,3.44,0,0,0,23.6,11h-.21a3.57,3.57,0,0,0-1.91.85h0a.19.19,0,0,1-.1,0,.11.11,0,0,1-.08,0,.15.15,0,0,1-.09-.15v-.32a.14.14,0,0,0,0-.07l0,0a.2.2,0,0,0-.09-.05H19.42a.21.21,0,0,0-.13.05.17.17,0,0,0-.05.12v9.38a.17.17,0,0,0,.17.17H21a.21.21,0,0,0,.13-.05.18.18,0,0,0,.05-.12V15.26a2.49,2.49,0,0,1,.57-1.91,1.92,1.92,0,0,1,1.38-.58,2,2,0,0,1,1.39.58,2.53,2.53,0,0,1,.57,1.91v5.55a.17.17,0,0,0,.17.17h1.62a.17.17,0,0,0,.12-.05.18.18,0,0,0,0-.12V15.26a2.53,2.53,0,0,1,.58-1.91A1.92,1.92,0,0,1,29,12.77a2,2,0,0,1,1.39.58A2.53,2.53,0,0,1,31,15.26v5.55a.18.18,0,0,0,.05.12.17.17,0,0,0,.12.05h1.62a.17.17,0,0,0,.12-.05.18.18,0,0,0,.05-.12V15a4,4,0,0,0-1-3,3.47,3.47,0,0,0-2.46-1"/></svg>